<svg xmlns="http://www.w3.org/2000/svg" width="42" height="39" fill="none"><path stroke="#000" stroke-linecap="round" stroke-linejoin="round" stroke-width="2" d="m11 11.716-10 10 10 10M31 11.716l10 10-10 10"/><path fill="#000" d="m24.535 4.33-8.587 32.046a.816.816 0 0 1-1.577-.422l8.587-32.047a.816.816 0 0 1 1.577.423"/><path fill="#d9d9d9" d="M22.958 3.907a.816.816 0 0 1 1.577.423l-1.046 3.903-1.577-.423z"/><path stroke="#000" stroke-linecap="round" d="m25.695 6.31 3.154.845M17.81 4.197l3.154.845"/><path fill="#000" d="M20.08.25a.505.505 0 0 0-.686-.184.495.495 0 0 0-.182.68zm.77 3.306c.138.238.445.32.685.183a.495.495 0 0 0 .182-.68zM19.211.746l1.637 2.81.868-.497L20.08.25zM17.335 7.752a.495.495 0 0 0-.183.68c.14.238.447.32.686.184zm3.326-.75a.495.495 0 0 0 .182-.68.505.505 0 0 0-.686-.184zm-2.823 1.614L20.661 7l-.504-.864-2.822 1.615zM25.71 7.625a.505.505 0 0 0-.686-.184.495.495 0 0 0-.182.68zm.77 3.306c.138.238.445.32.685.184a.495.495 0 0 0 .182-.68zm-1.638-2.81 1.637 2.81.868-.496-1.637-2.81zM25.898 4.18a.495.495 0 0 0-.182.68c.139.238.446.32.685.183zm3.326-.75a.495.495 0 0 0 .183-.68.505.505 0 0 0-.686-.185zm-2.823 1.613 2.823-1.614-.503-.864-2.823 1.615z"/></svg>